nColumns=19
nRows=93
DataType=double
version=3
OpenSimVersion=4.1
endheader
time	ground_force_1_vx	ground_force_1_vy	ground_force_1_vz	ground_force_1_px	ground_force_1_py	ground_force_1_pz	ground_force_1_mx	ground_force_1_my	ground_force_1_mz	ground_force_2_vx	ground_force_2_vy	ground_force_2_vz	ground_force_2_px	ground_force_2_py	ground_force_2_pz	ground_force_2_mx	ground_force_2_my	ground_force_2_mz
0	1.46073	83.631	3.57053	0.0743516	0.006	-0.146218	0	0.337487	0	0	0	0	0.718734	0	-0.182893	0	0	0
0.01	-2.70184	118.849	4.22771	0.0810366	0.006	-0.146534	0	0.372722	0	0	0	0	0.718734	0	-0.182893	0	0	0
0.02	-8.44745	160.051	4.87106	0.0868836	0.006	-0.146789	0	0.42227	0	0	0	0	0.718734	0	-0.182893	0	0	0
0.03	-15.9669	206.811	5.44538	0.0915256	0.006	-0.146964	0	0.484478	0	0	0	0	0.718734	0	-0.182893	0	0	0
0.04	-25.2284	258.398	5.85126	0.0954886	0.006	-0.147069	0	0.557345	0	0	0	0	0.718734	0	-0.182893	0	0	0
0.05	-35.9266	313.821	5.93307	0.0990476	0.006	-0.147094	0	0.63798	0	0	0	0	0.718734	0	-0.182893	0	0	0
0.06	-47.6012	371.802	5.50225	0.102351	0.006	-0.14703	0	0.723018	0	0	0	0	0.718734	0	-0.182893	0	0	0
0.07	-59.7417	430.795	4.38227	0.105485	0.006	-0.146871	0	0.808769	0	0	0	0	0.718734	0	-0.182893	0	0	0
0.08	-71.8129	489.136	2.46417	0.108492	0.006	-0.146623	0	0.89172	0	0	0	0	0.718734	0	-0.182893	0	0	0
0.09	-83.2823	545.202	-0.246109	0.111386	0.006	-0.146301	0	0.969979	0	0	0	0	0.718734	0	-0.182893	0	0	0
0.1	-93.6669	597.563	-3.61188	0.114168	0.006	-0.145923	0	1.04505	0	0	0	0	0.718734	0	-0.182893	0	0	0
0.11	-102.567	645.074	-7.38389	0.116824	0.006	-0.145514	0	1.12208	0	0	0	0	0.718734	0	-0.182893	0	0	0
0.12	-109.672	686.902	-11.2554	0.119338	0.006	-0.145093	0	1.20729	0	0	0	0	0.718734	0	-0.182893	0	0	0
0.13	-114.777	722.538	-14.9428	0.121695	0.006	-0.144675	0	1.30307	0	0	0	0	0.718734	0	-0.182893	0	0	0
0.14	-117.803	751.773	-18.2404	0.123887	0.006	-0.144266	0	1.4057	0	0	0	0	0.718734	0	-0.182893	0	0	0
0.15	-118.776	774.629	-21.0359	0.125908	0.006	-0.143865	0	1.50736	0	0	0	0	0.718734	0	-0.182893	0	0	0
0.16	-117.794	791.28	-23.2977	0.12776	0.006	-0.143467	0	1.59881	0	0	0	0	0.718734	0	-0.182893	0	0	0
0.17	-115.008	801.976	-25.057	0.129445	0.006	-0.14306	0	1.67107	0	0	0	0	0.718734	0	-0.182893	0	0	0
0.18	-110.613	807.046	-26.3878	0.13097	0.006	-0.142634	0	1.71651	0	0	0	0	0.718734	0	-0.182893	0	0	0
0.19	-104.837	806.936	-27.3846	0.132351	0.006	-0.142174	0	1.72934	0	0	0	0	0.718734	0	-0.182893	0	0	0
0.2	-97.9427	802.263	-28.136	0.133612	0.006	-0.141665	0	1.70604	0	0	0	0	0.718734	0	-0.182893	0	0	0
0.21	-90.2158	793.798	-28.6997	0.134784	0.006	-0.141097	0	1.64589	0	0	0	0	0.718734	0	-0.182893	0	0	0
0.22	-81.9435	782.421	-29.0927	0.135907	0.006	-0.14046	0	1.55103	0	0	0	0	0.718734	0	-0.182893	0	0	0
0.23	-73.3993	769.043	-29.3008	0.137024	0.006	-0.139749	0	1.42531	0	0	0	0	0.718734	0	-0.182893	0	0	0
0.24	-64.8281	754.559	-29.2975	0.138183	0.006	-0.138964	0	1.27296	0	0	0	0	0.718734	0	-0.182893	0	0	0
0.25	-56.43	739.781	-29.0595	0.139431	0.006	-0.138101	0	1.09739	0	0	0	0	0.718734	0	-0.182893	0	0	0
0.26	-48.353	725.405	-28.5813	0.140815	0.006	-0.137164	0	0.900626	0	0	0	0	0.718734	0	-0.182893	0	0	0
0.27	-40.6975	711.983	-27.8877	0.142376	0.006	-0.136153	0	0.683196	0	0	0	0	0.718734	0	-0.182893	0	0	0
0.28	-33.5284	699.915	-27.0404	0.144156	0.006	-0.135068	0	0.444515	0	0	0	0	0.718734	0	-0.182893	0	0	0
0.29	-26.8849	689.459	-26.13	0.146189	0.006	-0.133913	0	0.183733	0	0	0	0	0.718734	0	-0.182893	0	0	0
0.3	-20.7847	680.76	-25.2598	0.148506	0.006	-0.132689	0	-0.099232	0	0	0	0	0.718734	0	-0.182893	0	0	0
0.31	-15.2243	673.886	-24.5275	0.151131	0.006	-0.131403	0	-0.403117	0	0	0	0	0.718734	0	-0.182893	0	0	0
0.32	-10.1802	668.864	-24.0135	0.154077	0.006	-0.130068	0	-0.725565	0	0	0	0	0.718734	0	-0.182893	0	0	0
0.33	-5.61296	665.697	-23.773	0.157347	0.006	-0.128701	0	-1.06347	0	0	0	0	0.718734	0	-0.182893	0	0	0
0.34	-1.47148	664.385	-23.8347	0.160939	0.006	-0.127324	0	-1.41319	0	0	0	0	0.718734	0	-0.182893	0	0	0
0.35	2.30466	664.927	-24.2016	0.16484	0.006	-0.125966	0	-1.77065	0	0	0	0	0.718734	0	-0.182893	0	0	0
0.36	5.78179	667.331	-24.8557	0.169032	0.006	-0.124657	0	-2.13154	0	0	0	0	0.718734	0	-0.182893	0	0	0
0.37	9.03013	671.612	-25.7633	0.17349	0.006	-0.123428	0	-2.49147	0	0	0	0	0.718734	0	-0.182893	0	0	0
0.38	12.1227	677.787	-26.8815	0.178187	0.006	-0.122309	0	-2.8461	0	0	0	0	0.718734	0	-0.182893	0	0	0
0.39	15.1356	685.869	-28.1643	0.183089	0.006	-0.12133	0	-3.19108	0	0	0	0	0.718734	0	-0.182893	0	0	0
0.4	18.149	695.853	-29.5657	0.188162	0.006	-0.120516	0	-3.52188	0	0	0	0	0.718734	0	-0.182893	0	0	0
0.41	21.2454	707.705	-31.0408	0.193372	0.006	-0.119887	0	-3.83375	0	0	0	0	0.718734	0	-0.182893	0	0	0
0.42	24.5037	721.359	-32.5429	0.198688	0.006	-0.119456	0	-4.12166	0	0	0	0	0.718734	0	-0.182893	0	0	0
0.43	27.9922	736.704	-34.0195	0.20408	0.006	-0.119234	0	-4.38069	0	0	0	0	0.718734	0	-0.182893	0	0	0
0.44	31.7635	753.577	-35.4114	0.209524	0.006	-0.119223	0	-4.60638	0	0	0	0	0.718734	0	-0.182893	0	0	0
0.45	35.8527	771.742	-36.6526	0.214997	0.006	-0.119421	0	-4.79507	0	0	0	0	0.718734	0	-0.182893	0	0	0
0.46	40.2799	790.866	-37.6724	0.220476	0.006	-0.119823	0	-4.94418	0	0	0	0	0.718734	0	-0.182893	0	0	0
0.47	45.0551	810.498	-38.3982	0.225941	0.006	-0.120416	0	-5.05226	0	0	0	0	0.718734	0	-0.182893	0	0	0
0.48	50.1812	830.056	-38.7597	0.231371	0.006	-0.121188	0	-5.11905	0	0	0	0	0.718734	0	-0.182893	0	0	0
0.49	55.6522	848.822	-38.6943	0.236746	0.006	-0.12212	0	-5.14559	0	0	0	0	0.718734	0	-0.182893	0	0	0
0.5	61.4494	865.953	-38.1515	0.242048	0.006	-0.123195	0	-5.13406	0	0	0	0	0.718734	0	-0.182893	0	0	0
0.51	67.5343	880.511	-37.0965	0.247264	0.006	-0.124394	0	-5.0877	0	0	0	0	0.718734	0	-0.182893	0	0	0
0.52	73.8405	891.517	-35.5133	0.25238	0.006	-0.125698	0	-5.01058	0	0	0	0	0.718734	0	-0.182893	0	0	0
0.53	80.2677	897.991	-33.405	0.257387	0.006	-0.12709	0	-4.90755	0	0	0	0	0.718734	0	-0.182893	0	0	0
0.54	86.6814	899.007	-30.7936	0.262277	0.006	-0.128554	0	-4.78449	0	4.24974	20.062	-6.37977	0.718734	0.006	-0.182893	0	0.381036	0
0.55	92.9105	893.737	-27.7205	0.267044	0.006	-0.130073	0	-4.64818	0	2.82153	40.6731	-7.41677	0.759877	0.006	-0.207062	0	0.487157	0
0.56	98.7416	881.489	-24.2458	0.271686	0.006	-0.131634	0	-4.50587	0	0.427569	66.851	-8.48194	0.782097	0.006	-0.219422	0	0.535021	0
0.57	103.917	861.738	-20.4473	0.276206	0.006	-0.133225	0	-4.36437	0	-3.16369	98.9943	-9.50719	0.79464	0.006	-0.225872	0	0.568663	0
0.58	108.14	834.178	-16.4209	0.28062	0.006	-0.134836	0	-4.22868	0	-8.19318	137.225	-10.3993	0.803025	0.006	-0.229786	0	0.599198	0
0.59	111.099	798.76	-12.2839	0.28495	0.006	-0.136461	0	-4.10062	0	-14.8854	181.312	-11.0454	0.809304	0.006	-0.232412	0	0.630807	0
0.6	112.502	755.749	-8.17967	0.289231	0.006	-0.138092	0	-3.97793	0	-23.3213	230.683	-11.3147	0.814413	0.006	-0.234323	0	0.666448	0
0.61	112.114	705.767	-4.27735	0.2935	0.006	-0.139726	0	-3.85397	0	-33.3284	284.462	-11.0594	0.818824	0.006	-0.235818	0	0.708251	0
0.62	109.796	649.8	-0.761194	0.297802	0.006	-0.141354	0	-3.71849	0	-44.5357	341.49	-10.1367	0.822792	0.006	-0.237063	0	0.756151	0
0.63	105.528	589.174	2.19114	0.302178	0.006	-0.142971	0	-3.56001	0	-56.4855	400.351	-8.44374	0.826458	0.006	-0.23815	0	0.80781	0
0.64	99.4333	525.469	4.43863	0.306671	0.006	-0.144566	0	-3.36872	0	-68.6791	459.454	-5.95348	0.829897	0.006	-0.23913	0	0.859215	0
0.65	91.7578	460.406	5.90839	0.311331	0.006	-0.146132	0	-3.13938	0	-80.5813	517.151	-2.73643	0.833143	0.006	-0.240023	0	0.904612	0
0.66	82.8379	395.732	6.61462	0.316224	0.006	-0.147669	0	-2.87303	0	-91.6571	571.875	1.03418	0.836203	0.006	-0.240838	0	0.936572	0
0.67	73.0566	333.113	6.65702	0.321453	0.006	-0.149185	0	-2.57647	0	-101.412	622.24	5.10178	0.839064	0.006	-0.241574	0	0.94821	0
0.68	62.8245	274.038	6.19609	0.327171	0.006	-0.150708	0	-2.26025	0	-109.416	667.111	9.17997	0.841705	0.006	-0.242227	0	0.937232	0
0.69	52.572	219.708	5.41316	0.333616	0.006	-0.152287	0	-1.93646	0	-115.348	705.679	13.0182	0.844109	0.006	-0.242797	0	0.908457	0
0.7	42.7108	170.979	4.47543	0.341174	0.006	-0.154005	0	-1.61694	0	-119.049	737.505	16.4467	0.846269	0.006	-0.243285	0	0.873209	0
0.71	33.5823	128.341	3.51643	0.350513	0.006	-0.155995	0	-1.31235	0	-120.499	762.476	19.3788	0.848192	0.006	-0.243698	0	0.845421	0
0.72	25.4259	91.9498	2.62883	0.362928	0.006	-0.158504	0	-1.03197	0	-119.78	780.714	21.7934	0.849885	0.006	-0.244044	0	0.837885	0
0.73	18.3743	61.6883	1.86421	0.381295	0.006	-0.162051	0	-0.784504	0	-117.037	792.493	23.719	0.851363	0.006	-0.244331	0	0.860635	0
0.74	12.4665	37.2342	1.24109	0.413472	0.006	-0.168025	0	-0.580585	0	-112.474	798.201	25.216	0.852646	0.006	-0.244567	0	0.919993	0
0.75	0	0	0	0.473183	0	-0.177448	0	0	0	-106.352	798.356	26.3588	0.85376	0.006	-0.244762	0	1.01825	0
0.76	0	0	0	0.500972	0	-0.175758	0	0	0	-98.9876	793.644	27.2213	0.854742	0.006	-0.244925	0	1.15427	0
0.77	0	0	0	0.52876	0	-0.174068	0	0	0	-90.7395	784.93	27.8634	0.855641	0.006	-0.245062	0	1.32398	0
0.78	0	0	0	0.556549	0	-0.172378	0	0	0	-81.985	773.213	28.3186	0.856511	0.006	-0.245179	0	1.5207	0
0.79	0	0	0	0.584338	0	-0.170688	0	0	0	-73.0902	759.548	28.5923	0.857414	0.006	-0.24528	0	1.73608	0
0.8	0	0	0	0.612126	0	-0.168998	0	0	0	-64.3833	744.95	28.6695	0.858417	0.006	-0.245369	0	1.96181	0
0.81	0	0	0	0.639915	0	-0.167308	0	0	0	-56.1301	730.328	28.5301	0.859581	0.006	-0.245446	0	2.19105	0
0.82	0	0	0	0.667704	0	-0.165619	0	0	0	-48.5173	716.423	28.1625	0.860964	0.006	-0.245514	0	2.41943	0
0.83	0	0	0	0.695492	0	-0.163929	0	0	0	-41.6489	703.783	27.5746	0.862614	0.006	-0.245576	0	2.64517	0
0.84	0	0	0	0.723281	0	-0.162239	0	0	0	-35.5567	692.77	26.7995	0.864568	0.006	-0.245638	0	2.86879	0
0.85	0	0	0	0.751069	0	-0.160549	0	0	0	-30.2181	683.585	25.8956	0.866851	0.006	-0.245703	0	3.09221	0
0.86	0	0	0	0.778858	0	-0.158859	0	0	0	-25.5754	676.31	24.9383	0.86948	0.006	-0.245779	0	3.31779	0
0.87	0	0	0	0.806647	0	-0.157169	0	0	0	-21.5525	670.95	24.0098	0.872461	0.006	-0.24587	0	3.54748	0
0.88	0	0	0	0.834435	0	-0.155479	0	0	0	-18.067	667.465	23.1886	0.8758	0.006	-0.245978	0	3.7823	0
0.89	0	0	0	0.862224	0	-0.153789	0	0	0	-15.0369	665.799	22.5432	0.879496	0.006	-0.246103	0	4.02212	0
0.9	0	0	0	0.890013	0	-0.1521	0	0	0	-12.381	665.891	22.1277	0.883543	0.006	-0.246245	0	4.26556	0
0.91	0	0	0	0.917801	0	-0.15041	0	0	0	-10.0165	667.688	21.9798	0.887929	0.006	-0.246398	0	4.51019	0
0.92	0	0	0	0.94559	0	-0.14872	0	0	0	-7.85696	671.14	22.119	0.892638	0.006	-0.246557	0	4.75259	0
